<?xml version="1.0" encoding="UTF-8"?> <!-- Generator: Adobe Illustrator 15.0.0, SVG Export Plug-In . SVG Version: 6.00 Build 0) --> <svg xmlns:inkscape="http://www.inkscape.org/namespaces/inkscape" xmlns:sodipodi="http://sodipodi.sourceforge.net/DTD/sodipodi-0.dtd" xmlns:svg="http://www.w3.org/2000/svg" xmlns:rdf="http://www.w3.org/1999/02/22-rdf-syntax-ns#" xmlns:cc="http://creativecommons.org/ns#" xmlns:dc="http://purl.org/dc/elements/1.1/" xmlns="http://www.w3.org/2000/svg" xmlns:xlink="http://www.w3.org/1999/xlink" id="svg2" sodipodi:docname="google-play-badge.svg" inkscape:version="0.91 r13725" x="0px" y="0px" width="462.542px" height="154.979px" viewBox="-196.713 -57.362 462.542 154.979" xml:space="preserve"> <g> <g> <g> <path fill="#A6A6A6" d="M229.03-57.095h-388.456c-1.417,0-2.815,0-4.227,0.007c-1.184,0.008-2.356,0.03-3.549,0.051 c-2.593,0.029-5.181,0.255-7.738,0.681c-2.556,0.434-5.028,1.249-7.34,2.421c-2.309,1.18-4.416,2.715-6.251,4.55 c-1.842,1.83-3.378,3.941-4.549,6.26c-1.173,2.312-1.987,4.79-2.412,7.345c-0.432,2.558-0.663,5.14-0.693,7.73 c-0.034,1.184-0.038,2.372-0.059,3.556v89.251c0.021,1.197,0.024,2.361,0.059,3.561c0.03,2.59,0.262,5.174,0.693,7.729 c0.423,2.562,1.237,5.037,2.412,7.354c1.171,2.307,2.705,4.416,4.549,6.234c1.828,1.844,3.938,3.377,6.251,4.551 c2.312,1.176,4.784,1.996,7.34,2.434c2.558,0.424,5.146,0.65,7.738,0.684c1.192,0.027,2.365,0.043,3.549,0.043 c1.411,0.006,2.81,0.006,4.227,0.006H229.03c1.389,0,2.797,0,4.186-0.006c1.178,0,2.383-0.016,3.559-0.043 c2.586-0.033,5.17-0.26,7.725-0.684c2.562-0.443,5.045-1.262,7.365-2.434c2.312-1.174,4.42-2.707,6.248-4.551 c1.84-1.824,3.379-3.932,4.562-6.234c1.166-2.316,1.973-4.795,2.393-7.354c0.428-2.555,0.668-5.139,0.713-7.729 c0.018-1.199,0.018-2.363,0.018-3.561c0.031-1.402,0.031-2.799,0.031-4.225v-80.81c0-1.415,0-2.817-0.031-4.216 c0-1.184,0-2.372-0.018-3.556c-0.045-2.591-0.285-5.173-0.713-7.73c-0.424-2.553-1.227-5.031-2.393-7.345 c-2.383-4.646-6.164-8.428-10.811-10.811c-2.32-1.169-4.803-1.987-7.365-2.421c-2.555-0.426-5.139-0.656-7.725-0.681 c-1.176-0.021-2.381-0.042-3.559-0.051C231.827-57.095,230.419-57.095,229.03-57.095L229.03-57.095z"></path> <path d="M-163.634,93.972c-1.178,0-2.324-0.014-3.493-0.041c-2.417-0.033-4.829-0.24-7.216-0.629 c-2.225-0.385-4.382-1.098-6.397-2.115c-1.997-1.012-3.819-2.336-5.396-3.926c-1.598-1.568-2.929-3.395-3.94-5.391 c-1.021-2.014-1.729-4.17-2.096-6.4c-0.397-2.395-0.612-4.814-0.643-7.24c-0.024-0.812-0.057-3.523-0.057-3.523v-89.2 c0,0,0.034-2.668,0.057-3.454c0.03-2.421,0.243-4.838,0.639-7.229c0.369-2.232,1.076-4.397,2.098-6.415 c1.008-1.999,2.33-3.823,3.921-5.399c1.588-1.591,3.414-2.923,5.415-3.949c2.012-1.014,4.162-1.723,6.384-2.1 c2.394-0.392,4.814-0.604,7.241-0.633l3.485-0.046h396.83l3.521,0.049c2.41,0.026,4.807,0.238,7.178,0.627 c2.246,0.38,4.416,1.092,6.451,2.114c4.006,2.067,7.273,5.332,9.328,9.345c1.006,2.006,1.701,4.155,2.066,6.364 c0.402,2.411,0.627,4.846,0.672,7.29c0.012,1.092,0.012,2.266,0.012,3.435c0.029,1.448,0.029,2.829,0.029,4.216v80.81 c0,1.404,0,2.771-0.029,4.152c0,1.256,0,2.406-0.014,3.59c-0.047,2.398-0.268,4.793-0.662,7.158 c-0.359,2.242-1.064,4.42-2.084,6.447c-1.02,1.98-2.342,3.783-3.924,5.352c-1.576,1.598-3.402,2.93-5.404,3.947 c-2.027,1.029-4.195,1.742-6.441,2.123c-2.387,0.393-4.799,0.6-7.217,0.629c-1.131,0.027-2.316,0.041-3.465,0.041l-4.186,0.01 L-163.634,93.972z"></path> </g> <g id="_Group_"> <g id="_Group_2"> <g id="_Group_3"> <path id="_Path_" fill="#FFFFFF" d="M-100.602,21.289c0.083-6.554,3.518-12.603,9.099-16.033 c-3.537-5.05-9.247-8.138-15.411-8.331c-6.483-0.683-12.77,3.881-16.075,3.881c-3.366,0-8.453-3.813-13.934-3.7 c-7.207,0.233-13.762,4.229-17.269,10.531c-7.47,12.927-1.898,31.93,5.254,42.383c3.58,5.113,7.762,10.828,13.236,10.629 c5.355-0.221,7.356-3.416,13.82-3.416c6.405,0,8.281,3.416,13.867,3.285c5.746-0.09,9.367-5.137,12.82-10.303 c2.571-3.648,4.551-7.678,5.863-11.943C-96.156,35.386-100.593,28.701-100.602,21.289z"></path> <path id="_Path_2" fill="#FFFFFF" d="M-111.151-9.949c3.134-3.759,4.678-8.597,4.306-13.477 c-4.789,0.502-9.211,2.791-12.386,6.408c-3.138,3.571-4.727,8.238-4.418,12.979C-118.795-3.988-114.19-6.168-111.151-9.949z"></path> </g> </g> <g> <path fill="#FFFFFF" d="M-32.901,47.695h-18.276l-4.39,12.959h-7.741l17.311-47.948h8.044l17.312,47.948h-7.873L-32.901,47.695z M-49.284,41.715h14.487l-7.143-21.033h-0.199L-49.284,41.715z"></path> <path fill="#FFFFFF" d="M16.746,43.176c0,10.865-5.814,17.846-14.588,17.846c-4.537,0.236-8.811-2.139-11.001-6.117h-0.165 V72.22h-7.178V25.695h6.947v5.814h0.131c2.29-3.955,6.567-6.326,11.132-6.18C10.897,25.33,16.746,32.344,16.746,43.176z M9.371,43.176c0-7.076-3.658-11.73-9.239-11.73c-5.483,0-9.17,4.754-9.17,11.73c0,7.045,3.687,11.764,9.17,11.764 C5.713,54.939,9.371,50.32,9.371,43.176z"></path> <path fill="#FFFFFF" d="M55.224,43.176c0,10.865-5.813,17.846-14.593,17.846c-4.533,0.236-8.808-2.139-10.994-6.117h-0.168 V72.22h-7.177V25.695h6.943v5.814h0.137c2.284-3.955,6.561-6.326,11.132-6.18C49.373,25.33,55.224,32.344,55.224,43.176z M47.849,43.176c0-7.076-3.658-11.73-9.239-11.73c-5.482,0-9.171,4.754-9.171,11.73c0,7.045,3.688,11.764,9.171,11.764 C44.191,54.939,47.849,50.32,47.849,43.176L47.849,43.176z"></path> <path fill="#FFFFFF" d="M80.657,47.297c0.527,4.752,5.15,7.875,11.463,7.875c6.049,0,10.402-3.123,10.402-7.408 c0-3.723-2.629-5.951-8.84-7.479l-6.215-1.496c-8.811-2.127-12.896-6.246-12.896-12.928c0-8.272,7.209-13.955,17.451-13.955 c10.129,0,17.074,5.683,17.311,13.955h-7.242c-0.439-4.785-4.391-7.674-10.174-7.674c-5.777,0-9.738,2.924-9.738,7.178 c0,3.389,2.527,5.383,8.713,6.912l5.279,1.295c9.842,2.326,13.93,6.279,13.93,13.293c0,8.971-7.15,14.59-18.518,14.59 c-10.633,0-17.812-5.486-18.271-14.158H80.657z"></path> <path fill="#FFFFFF" d="M125.585,17.423v8.272h6.652v5.682h-6.652v19.275c0,2.992,1.332,4.389,4.25,4.389 c0.795-0.012,1.582-0.072,2.361-0.166v5.646c-1.311,0.246-2.645,0.359-3.98,0.334c-7.08,0-9.842-2.658-9.842-9.439V31.377 h-5.082v-5.682h5.082v-8.272H125.585z"></path> <path fill="#FFFFFF" d="M136.081,43.176c0-10.998,6.48-17.908,16.586-17.908c10.137,0,16.584,6.91,16.584,17.908 c0,11.031-6.418,17.912-16.584,17.912C142.503,61.088,136.081,54.207,136.081,43.176z M161.934,43.176 c0-7.543-3.453-11.998-9.268-11.998s-9.27,4.488-9.27,11.998c0,7.576,3.455,11.996,9.27,11.996S161.934,50.752,161.934,43.176 L161.934,43.176z"></path> <path fill="#FFFFFF" d="M175.163,25.695h6.85v5.951h0.166c0.951-3.83,4.467-6.467,8.41-6.316 c0.824-0.004,1.65,0.086,2.459,0.268v6.713c-1.047-0.322-2.135-0.463-3.229-0.434c-3.988-0.162-7.352,2.941-7.516,6.93 c-0.014,0.371-0.004,0.744,0.043,1.113v20.734h-7.184V25.695z"></path> <path fill="#FFFFFF" d="M226.135,50.388c-0.969,6.344-7.152,10.699-15.057,10.699c-10.174,0-16.486-6.812-16.486-17.744 c0-10.967,6.35-18.076,16.186-18.076c9.67,0,15.756,6.643,15.756,17.244v2.457h-24.693v0.434 c-0.443,5.012,3.256,9.43,8.266,9.871c0.377,0.035,0.758,0.043,1.139,0.031c3.48,0.328,6.766-1.674,8.072-4.916H226.135z M201.87,39.953h17.482c0.258-4.637-3.293-8.604-7.926-8.861c-0.221-0.01-0.434-0.014-0.648-0.01 c-4.887-0.031-8.875,3.91-8.908,8.797C201.87,39.9,201.87,39.931,201.87,39.953z"></path> </g> </g> </g> <g id="_Group_4"> <g> <path fill="#FFFFFF" d="M-50.183-23.384c5.612-0.404,10.49,3.819,10.894,9.434c0.05,0.672,0.03,1.346-0.055,2.014 c0,7.361-3.977,11.592-10.839,11.592h-8.324v-23.04H-50.183z M-54.928-3.603h4.344c3.992,0.237,7.425-2.806,7.663-6.799 c0.03-0.497,0.01-0.996-0.064-1.488c0.544-3.975-2.233-7.637-6.208-8.183c-0.46-0.063-0.927-0.083-1.391-0.057h-4.344V-3.603z"></path> <path fill="#FFFFFF" d="M-35.301-9.049c-0.433-4.528,2.887-8.547,7.415-8.981c4.529-0.434,8.55,2.884,8.983,7.413 c0.053,0.524,0.053,1.049,0,1.568c0.441,4.53-2.872,8.56-7.398,8.998c-4.529,0.44-8.559-2.87-9-7.399 C-35.351-7.982-35.351-8.516-35.301-9.049z M-22.432-9.049c0-3.766-1.693-5.972-4.664-5.972c-2.982,0-4.659,2.206-4.659,5.972 c0,3.802,1.677,5.989,4.659,5.989C-24.125-3.059-22.432-5.262-22.432-9.049L-22.432-9.049z"></path> <path fill="#FFFFFF" d="M2.897-0.344h-3.56L-4.256-13.15h-0.271L-8.106-0.344h-3.527l-4.79-17.388h3.479l3.116,13.266h0.256 l3.575-13.266h3.291L0.868-4.467h0.271L4.24-17.733h3.432L2.897-0.344z"></path> <path fill="#FFFFFF" d="M11.703-17.733h3.302v2.761h0.258c0.891-2.034,2.975-3.278,5.188-3.097 c3.114-0.233,5.829,2.101,6.063,5.215c0.029,0.419,0.016,0.838-0.045,1.251v11.257h-3.433V-10.74 c0-2.795-1.213-4.183-3.751-4.183c-2.2-0.102-4.066,1.6-4.17,3.797c-0.01,0.204-0.002,0.407,0.019,0.607v10.174h-3.431V-17.733z"></path> <path fill="#FFFFFF" d="M31.936-24.52h3.431v24.175h-3.431V-24.52z"></path> <path fill="#FFFFFF" d="M40.137-9.049c-0.433-4.528,2.889-8.551,7.417-8.981c4.529-0.434,8.553,2.884,8.983,7.413 c0.053,0.524,0.053,1.049,0,1.568c0.443,4.53-2.874,8.56-7.398,8.998c-4.533,0.44-8.561-2.874-9.002-7.403 C40.09-7.982,40.09-8.516,40.137-9.049z M53.007-9.049c0-3.766-1.692-5.972-4.663-5.972c-2.983,0-4.66,2.206-4.66,5.972 c0,3.802,1.677,5.989,4.66,5.989C51.314-3.059,53.007-5.262,53.007-9.049z"></path> <path fill="#FFFFFF" d="M60.15-5.262c0-3.129,2.33-4.935,6.472-5.192l4.705-0.271v-1.502c0-1.836-1.213-2.873-3.558-2.873 c-1.918,0-3.244,0.706-3.621,1.935h-3.327c0.354-2.986,3.162-4.903,7.104-4.903c4.359,0,6.818,2.167,6.818,5.841v11.883H71.44 v-2.444h-0.271c-1.119,1.785-3.115,2.828-5.218,2.73c-2.89,0.297-5.47-1.795-5.77-4.683C60.16-4.915,60.15-5.089,60.15-5.262z M71.327-6.748v-1.456l-4.244,0.272c-2.392,0.162-3.481,0.977-3.481,2.507c0,1.565,1.36,2.477,3.223,2.477 c2.255,0.226,4.263-1.415,4.494-3.666C71.319-6.657,71.327-6.702,71.327-6.748z"></path> <path fill="#FFFFFF" d="M79.253-9.049c0-5.493,2.83-8.974,7.217-8.974c2.221-0.101,4.299,1.086,5.334,3.051h0.256v-9.548h3.432 v24.175h-3.289v-2.75H91.93c-1.113,1.95-3.215,3.119-5.461,3.036C82.052-0.058,79.253-3.539,79.253-9.049z M82.798-9.049 c0,3.688,1.742,5.909,4.646,5.909c2.896,0,4.682-2.251,4.682-5.893c0-3.625-1.811-5.906-4.682-5.906 C84.555-14.938,82.798-12.706,82.798-9.049L82.798-9.049z"></path> <path fill="#FFFFFF" d="M109.694-9.049c-0.439-4.528,2.885-8.547,7.414-8.981c4.529-0.434,8.551,2.884,8.98,7.413 c0.053,0.524,0.053,1.049,0,1.568c0.445,4.53-2.871,8.56-7.396,8.998c-4.531,0.44-8.562-2.87-8.998-7.399 C109.639-7.982,109.639-8.516,109.694-9.049z M122.559-9.049c0-3.766-1.689-5.972-4.662-5.972c-2.984,0-4.66,2.206-4.66,5.972 c0,3.802,1.676,5.989,4.66,5.989C120.87-3.059,122.559-5.262,122.559-9.049z"></path> <path fill="#FFFFFF" d="M130.696-17.733h3.303v2.761h0.26c0.889-2.034,2.969-3.278,5.188-3.097 c3.115-0.233,5.83,2.101,6.064,5.215c0.029,0.419,0.014,0.838-0.045,1.251v11.257h-3.432V-10.74c0-2.795-1.215-4.183-3.758-4.183 c-2.199-0.102-4.064,1.6-4.17,3.797c-0.008,0.204,0,0.407,0.023,0.607v10.174h-3.434V-17.733z"></path> <path fill="#FFFFFF" d="M164.852-22.061v4.408h3.766v2.888h-3.766v8.941c0,1.821,0.748,2.62,2.461,2.62 c0.436-0.003,0.875-0.029,1.305-0.079v2.858c-0.615,0.11-1.236,0.17-1.861,0.174c-3.816,0-5.342-1.344-5.342-4.695v-9.82h-2.76 v-2.888h2.76v-4.408H164.852z"></path> <path fill="#FFFFFF" d="M173.307-24.52h3.402v9.582h0.273c0.936-2.052,3.053-3.299,5.303-3.114 c3.154-0.173,5.855,2.248,6.027,5.408c0.02,0.358,0.004,0.715-0.039,1.073v11.227h-3.439v-10.381 c0-2.775-1.289-4.183-3.721-4.183c-2.232-0.185-4.193,1.479-4.377,3.715c-0.021,0.229-0.021,0.463,0.004,0.693v10.155h-3.434 V-24.52z"></path> <path fill="#FFFFFF" d="M208.282-5.04c-0.967,3.277-4.141,5.396-7.535,5.031c-4.363,0.113-7.99-3.326-8.107-7.689 c-0.008-0.429,0.014-0.859,0.076-1.286c-0.59-4.389,2.494-8.427,6.881-9.016c0.373-0.048,0.754-0.072,1.135-0.068 c4.836,0,7.754,3.303,7.754,8.765v1.198h-12.279v0.192c-0.209,2.526,1.668,4.751,4.193,4.962c0.146,0.015,0.295,0.02,0.439,0.02 c1.68,0.199,3.312-0.634,4.139-2.108H208.282z M196.206-10.643h8.789c0.168-2.312-1.566-4.325-3.879-4.495 c-0.137-0.011-0.27-0.015-0.406-0.011c-2.451-0.031-4.473,1.934-4.504,4.392C196.206-10.719,196.206-10.681,196.206-10.643 L196.206-10.643z"></path> </g> </g> </g> </svg> 