<?xml version="1.0" encoding="UTF-8"?> <!-- Generator: Adobe Illustrator 22.1.0, SVG Export Plug-In . SVG Version: 6.00 Build 0) --> <svg xmlns="http://www.w3.org/2000/svg" xmlns:xlink="http://www.w3.org/1999/xlink" x="0px" y="0px" viewBox="0 0 170 170" style="enable-background:new 0 0 170 170;" xml:space="preserve"> <style type="text/css"> .st0{opacity:0.5;fill:#FF4A58;enable-background:new ;} .st1{fill:url(#SVGID_1_);} .st2{fill:url(#SVGID_2_);} .st3{fill:#212B33;} .st4{display:none;} .st5{display:inline;} .st6{fill:url(#SVGID_3_);} .st7{fill:none;stroke:#212B33;stroke-width:5;stroke-miterlimit:10;} .st8{fill:none;stroke:#212B33;stroke-width:5;stroke-linecap:round;stroke-miterlimit:10;} .st9{fill:url(#SVGID_4_);} .st10{fill:url(#SVGID_5_);} .st11{fill:url(#SVGID_6_);} .st12{fill:url(#SVGID_7_);} .st13{fill:url(#SVGID_8_);} .st14{fill:url(#SVGID_9_);} .st15{fill:url(#SVGID_10_);} .st16{fill:url(#SVGID_11_);} .st17{clip-path:url(#SVGID_13_);fill:url(#SVGID_14_);} .st18{clip-path:url(#SVGID_16_);fill:none;stroke:#292F36;stroke-width:7;stroke-miterlimit:10;} .st19{clip-path:url(#SVGID_18_);fill:none;stroke:#292F36;stroke-width:7;stroke-linecap:round;stroke-miterlimit:10;} .st20{clip-path:url(#SVGID_20_);fill:none;stroke:#292F36;stroke-width:7;stroke-linecap:round;stroke-miterlimit:10;} </style> <g id="Layer_1"> <path class="st0" d="M126.6,18.8c26.6,13.1,40.1,72.4,11.8,104.5c-53.8,61.2-129.1,17.5-124.1-15c4.6-29.8,39.4-10.5,65.9-49 c12.4-18.1,19.3-41.4,35.9-42.6C121.1,16.3,125,18.1,126.6,18.8"></path> </g> <g id="lighthouse"> <linearGradient id="SVGID_1_" gradientUnits="userSpaceOnUse" x1="65.4169" y1="44.2382" x2="101.0992" y2="44.2382"> <stop offset="0" style="stop-color:#0080EF"></stop> <stop offset="1" style="stop-color:#00D3CA"></stop> </linearGradient> <rect x="65.4" y="40.1" class="st1" width="35.7" height="8.2"></rect> <linearGradient id="SVGID_2_" gradientUnits="userSpaceOnUse" x1="69.2529" y1="91.671" x2="101.4279" y2="91.671"> <stop offset="0" style="stop-color:#0080EF"></stop> <stop offset="1" style="stop-color:#00D3CA"></stop> </linearGradient> <polygon class="st2" points="101.4,106.9 69.3,93.7 70.9,76.4 101.4,90.4 "></polygon> <g> <path class="st3" d="M130.4,70.5L113,63.3c-0.3-0.1-0.5-0.2-0.8-0.2c-0.8,0-1.6,0.5-1.9,1.3c-0.2,0.5-0.2,1.1,0,1.6 c0.2,0.5,0.6,0.9,1.1,1.1l17.4,7.2c1,0.4,2.2-0.1,2.7-1.1C131.9,72.2,131.4,71,130.4,70.5z"></path> <path class="st3" d="M113,44.9l17.4-7.2c1-0.4,1.5-1.6,1.1-2.7v0c-0.3-0.8-1.1-1.3-1.9-1.3c-0.3,0-0.5,0-0.8,0.2l-17.4,7.2 c-1,0.4-1.5,1.6-1.1,2.7C110.8,44.8,111.9,45.3,113,44.9z"></path> <path class="st3" d="M113.8,52.1c-1.1,0-2,0.9-2,2s0.9,2,2,2H124c1.1,0,2-0.9,2-2s-0.9-2-2-2H113.8z"></path> <path class="st3" d="M36.2,37.7l17.4,7.2c1,0.4,2.2-0.1,2.7-1.1c0.4-1-0.1-2.2-1.1-2.7l-17.4-7.2c-0.3-0.1-0.5-0.2-0.8-0.2 c-0.8,0-1.6,0.5-1.9,1.3C34.6,36.1,35.1,37.3,36.2,37.7z"></path> <path class="st3" d="M37.7,74.3l17.4-7.2c0.5-0.2,0.9-0.6,1.1-1.1c0.2-0.5,0.2-1.1,0-1.6c-0.3-0.8-1.1-1.3-1.9-1.3 c-0.3,0-0.5,0-0.8,0.2l-17.4,7.2c-0.5,0.2-0.9,0.6-1.1,1.1s-0.2,1.1,0,1.6C35.5,74.2,36.7,74.7,37.7,74.3z"></path> <path class="st3" d="M42.5,52.1c-1.1,0-2,0.9-2,2s0.9,2,2,2h10.2c1.1,0,2-0.9,2-2s-0.9-2-2-2H42.5z"></path> <path class="st3" d="M129.1,145.2H121v-8.9c0-3.9-3.2-7.1-7.1-7.1h-3v-3c0-3.1-2-5.8-4.9-6.8l-0.3-0.1L100.8,66l0.4-0.1 c2.7-1.1,4.6-3.7,4.6-6.7c0-3-1.9-5.7-4.8-6.7l-0.3-0.1v-0.3l-15.3,0V37.7h18.3c1.1,0,2-0.9,2-2s-0.9-2-2-2h-3.2l-0.1-0.4 c-1.2-8.5-8.6-14.8-17.1-14.8s-15.9,6.4-17.1,14.8l-0.1,0.4h-3.2c-1.1,0-2,0.9-2,2s0.9,2,2,2h18.3v14.4L66,52v0.3l-0.3,0.1 c-2.8,1-4.8,3.7-4.8,6.7c0,2.9,1.8,5.6,4.6,6.7l0.4,0.1l-1.1,12.4c-1.4,15.3-3.6,39.8-3.6,40.6l0,0.3l-0.3,0.1 c-2.9,1-4.9,3.7-4.9,6.8v3h-3c-3.9,0-7.1,3.2-7.1,7.1v8.9h-8.1c-1.1,0-2,0.9-2,2s0.9,2,2,2h91.7c1.1,0,2-0.9,2-2 S130.2,145.2,129.1,145.2z M70.2,33.6l0.1-0.6c1.2-6.1,6.7-10.6,13-10.6c6.3,0,11.7,4.5,13,10.6l0.1,0.6H70.2z M65,59.2 c0-1.7,1.4-3,3-3h30.6c1.7,0,3,1.4,3,3s-1.4,3-3,3H68C66.3,62.2,65,60.9,65,59.2z M68.9,77.5l16.9,7c1,0.4,2.2-0.1,2.7-1.1 c0.4-1-0.1-2.2-1.1-2.7l-17.4-7.2c-0.1,0-0.1,0-0.2-0.1l-0.4-0.1l0-0.4l0.6-6.6l26.9-0.3l3.3,38.5l-15.4-6.4 c-1-0.4-2.2,0.1-2.7,1.1c-0.4,1,0.1,2.2,1.1,2.7l17.4,7.2l0.9,9.8H65.1L68.9,77.5z M116.9,145.2H49.7v-8.9c0-1.7,1.4-3,3-3h14.5 c1.1,0,2-0.9,2-2s-0.9-2-2-2h-7.3v-3c0-1.7,1.4-3,3-3h40.7c1.7,0,3.1,1.4,3.1,3v3H84.5c-1.1,0-2,0.9-2,2s0.9,2,2,2h29.3 c1.7,0,3,1.4,3,3V145.2z"></path> </g> </g> <g id="magnify" class="st4"> <g class="st5"> <linearGradient id="SVGID_3_" gradientUnits="userSpaceOnUse" x1="-3361.1506" y1="-1320.8517" x2="-3289.1506" y2="-1320.8517" gradientTransform="matrix(0.8324 -0.5542 0.5542 0.8324 3574.9429 -677.0942)"> <stop offset="0" style="stop-color:#0080EF"></stop> <stop offset="1" style="stop-color:#00D3CA"></stop> </linearGradient> <circle class="st6" cx="75.1" cy="66.1" r="36"></circle> <circle class="st7" cx="86.1" cy="84.1" r="36"></circle> <line class="st8" x1="106.2" y1="115.7" x2="121.2" y2="138.7"></line> <path class="st8" d="M74.8,67.1c9.4-6.2,22-3.7,28.2,5.7"></path> </g> </g> <g id="brainbulb" class="st4"> <g class="st5"> <linearGradient id="SVGID_4_" gradientUnits="userSpaceOnUse" x1="20.1631" y1="53.3855" x2="44.7431" y2="53.3855"> <stop offset="0" style="stop-color:#0080EF"></stop> <stop offset="1" style="stop-color:#00D3CA"></stop> </linearGradient> <path class="st9" d="M42.7,55.4c1.1,0,2-0.9,2-2c0-1.1-0.9-2-2-2c-4.5,0-8.2-3.7-8.2-8.2c0-1.1-0.9-2-2-2c-1.1,0-2,0.9-2,2 c0,4.5-3.7,8.2-8.2,8.2c-1.1,0-2,0.9-2,2c0,1.1,0.9,2,2,2c4.5,0,8.2,3.7,8.2,8.2c0,1.1,0.9,2,2,2c1.1,0,2-0.9,2-2 C34.5,59.1,38.2,55.4,42.7,55.4z"></path> <linearGradient id="SVGID_5_" gradientUnits="userSpaceOnUse" x1="34.1631" y1="30.3855" x2="58.7431" y2="30.3855"> <stop offset="0" style="stop-color:#0080EF"></stop> <stop offset="1" style="stop-color:#00D3CA"></stop> </linearGradient> <path class="st10" d="M56.7,32.4c1.1,0,2-0.9,2-2c0-1.1-0.9-2-2-2c-4.5,0-8.2-3.7-8.2-8.2c0-1.1-0.9-2-2-2c-1.1,0-2,0.9-2,2 c0,4.5-3.7,8.2-8.2,8.2c-1.1,0-2,0.9-2,2c0,1.1,0.9,2,2,2c4.5,0,8.2,3.7,8.2,8.2c0,1.1,0.9,2,2,2c1.1,0,2-0.9,2-2 C48.5,36.1,52.2,32.4,56.7,32.4z"></path> <path class="st3" d="M59.5,49.9c-3.9,1.5-6.6,5.2-6.6,9.6c0,1.7,0.4,3.3,1.2,4.7c-3.1,1.2-5.3,4.1-5.3,7.6c0,3.5,2.2,6.4,5.3,7.6 c-0.7,1.4-1.2,3-1.2,4.7c0,4.4,2.8,8.1,6.6,9.6c-0.8,2.1-0.8,4.6,1.1,7.3c0.8,1.2,2,2.2,3.3,2.8c2.3,1.1,4.4,0.9,6.2,0.2 c1.5,3.1,4.9,5.1,8.6,4.5c4-0.6,6.9-4.3,6.9-8.4V43.3c0-4.1-2.9-7.8-6.9-8.4c-3.8-0.6-7.1,1.5-8.6,4.5c-1.9-0.7-4-0.9-6.3,0.3 c-1.3,0.7-2.5,1.7-3.3,3C58.6,45.4,58.7,47.8,59.5,49.9z M66.2,43.2c2.2-0.5,4.2,0.7,4.8,2.6c0.3,0.8,1,1.4,1.8,1.4h0.3 c1.3,0,2.2-1.3,1.8-2.5c-0.3-1-0.8-1.9-1.5-2.6c0.6-2.1,2.7-3.5,5-2.9c1.8,0.5,3,2.2,3,4.1v57.1c0,1.9-1.2,3.6-3,4.1 c-2.3,0.6-4.5-0.8-5-2.9c0.6-0.8,1.1-1.7,1.5-2.6c0.4-1.2-0.5-2.5-1.8-2.5h-0.3c-0.9,0-1.6,0.6-1.8,1.4c-0.7,1.9-2.6,3.1-4.8,2.6 c-1.5-0.3-2.7-1.5-3-3c-0.5-2.2,0.7-4.2,2.6-4.8c0.8-0.3,1.4-1,1.4-1.8v-0.2c0-1.3-1.3-2.2-2.5-1.8c-1,0.3-1.9,0.9-2.7,1.5 c-3.2-0.6-5.5-3.6-4.9-7c0.4-2.7,2.6-4.8,5.3-5.1c3.2-0.4,6,1.7,6.7,4.6c0.2,0.9,1,1.5,1.9,1.5h0.3c1.2,0,2.2-1.1,1.9-2.3 c-1-4.5-5.1-7.9-10-7.9c-2.3,0-4.4,0.8-6.1,2.1v-0.1c-2.3,0-4.1-1.8-4.1-4.1s1.8-4.1,4.1-4.1v-0.1c1.7,1.3,3.8,2.1,6.1,2.1 c4.9,0,8.9-3.4,10-7.9c0.3-1.2-0.7-2.3-1.9-2.3h-0.3c-0.9,0-1.6,0.6-1.9,1.5c-0.7,2.9-3.5,5-6.7,4.6c-2.7-0.3-4.9-2.4-5.3-5.1 c-0.5-3.4,1.8-6.4,4.9-7c0.8,0.7,1.7,1.2,2.7,1.5c1.2,0.4,2.5-0.5,2.5-1.8v-0.3c0-0.9-0.6-1.6-1.4-1.8c-1.9-0.7-3.1-2.6-2.6-4.8 C63.5,44.7,64.7,43.5,66.2,43.2z"></path> <path class="st3" d="M108.1,39c-1,0-2,0.2-2.9,0.6c-1.3-2.7-4.1-4.6-7.4-4.6c-4.5,0-8.2,3.7-8.2,8.2v57.4c0,4.5,3.7,8.2,8.2,8.2 c3.2,0,6-1.9,7.4-4.6c0.9,0.3,1.9,0.6,2.9,0.6c4.5,0,8.2-3.7,8.2-8.2c0-1-0.2-1.9-0.5-2.7c3.9-1.5,6.6-5.2,6.6-9.6 c0-1.7-0.4-3.3-1.2-4.7c3.1-1.2,5.3-4.1,5.3-7.6c0-3.5-2.2-6.4-5.3-7.6c0.7-1.4,1.2-3,1.2-4.7c0-4.4-2.8-8.1-6.6-9.6 c0.3-0.9,0.5-1.8,0.5-2.7C116.3,42.6,112.7,39,108.1,39z M118.3,60.4c-0.4,2.7-2.6,4.8-5.3,5.1c-3.2,0.4-6-1.7-6.7-4.6 c-0.2-0.9-1-1.5-1.9-1.5h-0.3c-1.2,0-2.2,1.1-1.9,2.3c1,4.5,5.1,7.9,10,7.9c2.3,0,4.4-0.8,6.1-2.1v0.1c2.3,0,4.1,1.8,4.1,4.1 s-1.8,4.1-4.1,4.1v0.1c-1.7-1.3-3.8-2.1-6.1-2.1c-4.9,0-8.9,3.4-10,7.9c-0.3,1.2,0.7,2.3,1.9,2.3h0.3c0.9,0,1.6-0.6,1.9-1.5 c0.7-2.9,3.5-5,6.7-4.6c2.7,0.3,4.9,2.5,5.3,5.1c0.5,3.4-1.8,6.4-4.9,7c-0.8-0.7-1.7-1.2-2.7-1.5c-1.2-0.4-2.5,0.5-2.5,1.8v0.2 c0,0.9,0.6,1.6,1.4,1.8c1.9,0.7,3.1,2.6,2.6,4.8c-0.3,1.5-1.5,2.7-3,3c-2.2,0.5-4.2-0.7-4.8-2.6c-0.3-0.8-1-1.4-1.8-1.4h-0.3 c-1.3,0-2.2,1.3-1.8,2.5c0.3,1,0.8,1.9,1.5,2.6c-0.5,1.9-2.4,3.3-4.6,3c-2-0.3-3.5-2.2-3.5-4.2v-57c0-2.1,1.4-3.9,3.5-4.2 c2.2-0.3,4,1.1,4.6,3c-0.6,0.8-1.1,1.7-1.5,2.6c-0.4,1.2,0.5,2.5,1.8,2.5h0.3c0.9,0,1.6-0.6,1.8-1.4c0.7-1.9,2.6-3.1,4.8-2.6 c1.5,0.3,2.7,1.5,3,3c0.5,2.2-0.7,4.2-2.6,4.8c-0.8,0.3-1.4,1-1.4,1.8v0.3c0,1.3,1.3,2.2,2.5,1.8c1-0.3,1.9-0.9,2.7-1.5 C116.5,54,118.8,57,118.3,60.4z"></path> <path class="st3" d="M119.9,37.4c-9-8.5-20.7-13-33.1-12.8c-1.2,0-2.1,1-2,2.2v0c0.1,1.1,1,1.9,2,1.9c11.3-0.2,22,3.9,30.3,11.7 c8.7,8.2,13.6,19.4,13.6,31.4c0,14.5-7.2,27.9-19.3,35.9c-4.2,2.8-7.3,6.7-9.3,11.2h-29c-2-4.6-5.1-8.5-9.3-11.3 c-11.9-8-19-21-19.1-35.2c0-1.1-0.9-2-2-2h0c-1.2,0-2.1,0.9-2.1,2.1c0.2,15.5,7.9,29.8,21,38.5c3,2,5.4,4.7,7.1,7.9h-3.5 c-1.1,0-2,0.9-2,2l0,0c0,1.1,0.9,2,2,2h5.1c0.4,1.3,0.7,2.7,0.9,4.1h-1.9c-1.1,0-2,0.9-2,2l0,0c0,1.1,0.9,2,2,2h2v6.1 c0,1.1,0.9,2,2,2h2c0,6.8,5.5,12.3,12.3,12.3s12.3-5.5,12.3-12.3h2c1.1,0,2-0.9,2-2v-6.1h2c1.1,0,2-0.9,2-2l0,0c0-1.1-0.9-2-2-2 h-1.9c0.1-1.4,0.4-2.8,0.8-4.1h5.2c1.1,0,2-0.9,2-2l0,0c0-1.1-0.9-2-2-2h-3.6c1.7-3.1,4-5.8,7-7.8c13.2-8.8,21.1-23.4,21.1-39.3 C134.8,58.8,129.4,46.3,119.9,37.4z M87.7,147.5c-4.5,0-8.2-3.7-8.2-8.2h16.4C95.9,143.8,92.2,147.5,87.7,147.5z M100,135.2H75.4 v-4.1H100V135.2z M100.1,127H75.2c-0.1-1.4-0.4-2.8-0.7-4.1h26.2C100.4,124.3,100.2,125.6,100.1,127z"></path> <g> <path class="st3" d="M36.5,51.7c1.1,2.5,3.2,4.6,5.7,5.7c-2.5,1.1-4.6,3.2-5.7,5.7c-1.1-2.5-3.2-4.6-5.7-5.7 C33.3,56.3,35.3,54.2,36.5,51.7 M36.5,45.1c-1.1,0-2,0.9-2,2c0,4.5-3.7,8.2-8.2,8.2c-1.1,0-2,0.9-2,2c0,1.1,0.9,2,2,2 c4.5,0,8.2,3.7,8.2,8.2c0,1.1,0.9,2,2,2c1.1,0,2-0.9,2-2c0-4.5,3.7-8.2,8.2-8.2c1.1,0,2-0.9,2-2c0-1.1-0.9-2-2-2 c-4.5,0-8.2-3.7-8.2-8.2C38.5,46,37.6,45.1,36.5,45.1L36.5,45.1z"></path> </g> <g> <path class="st3" d="M50.5,28.7c1.1,2.5,3.2,4.6,5.7,5.7c-2.5,1.1-4.6,3.2-5.7,5.7c-1.1-2.5-3.2-4.6-5.7-5.7 C47.3,33.3,49.3,31.2,50.5,28.7 M50.5,22.1c-1.1,0-2,0.9-2,2c0,4.5-3.7,8.2-8.2,8.2c-1.1,0-2,0.9-2,2c0,1.1,0.9,2,2,2 c4.5,0,8.2,3.7,8.2,8.2c0,1.1,0.9,2,2,2c1.1,0,2-0.9,2-2c0-4.5,3.7-8.2,8.2-8.2c1.1,0,2-0.9,2-2c0-1.1-0.9-2-2-2 c-4.5,0-8.2-3.7-8.2-8.2C52.5,23,51.6,22.1,50.5,22.1L50.5,22.1z"></path> </g> <linearGradient id="SVGID_6_" gradientUnits="userSpaceOnUse" x1="79.4681" y1="143.4155" x2="95.8548" y2="143.4155"> <stop offset="0" style="stop-color:#0080EF"></stop> <stop offset="1" style="stop-color:#00D3CA"></stop> </linearGradient> <path class="st11" d="M87.7,147.5c-4.5,0-8.2-3.7-8.2-8.2h16.4C95.9,143.8,92.2,147.5,87.7,147.5z"></path> </g> </g> <g id="compass" class="st4"> <g class="st5"> <path class="st3" d="M55,82.3h-6.9c-1,0-1.7,0.8-1.7,1.7s0.8,1.7,1.7,1.7H55c1,0,1.7-0.8,1.7-1.7S56,82.3,55,82.3z"></path> <path class="st3" d="M82.7,32c-28.7,0-52,23.3-52,52s23.3,52,52,52s52-23.3,52-52C134.7,55.3,111.5,32,82.7,32z M82.7,132.5 c-26.8,0-48.5-21.7-48.5-48.5s21.7-48.5,48.5-48.5s48.5,21.7,48.5,48.5C131.3,110.8,109.5,132.5,82.7,132.5z"></path> <path class="st3" d="M82.7,40.7c-23.9,0-43.3,19.4-43.3,43.3s19.4,43.3,43.3,43.3s43.3-19.4,43.3-43.3 C126.1,60.1,106.7,40.7,82.7,40.7z M82.7,123.9c-22,0-39.9-17.8-39.9-39.9s17.8-39.9,39.9-39.9S122.6,62,122.6,84 C122.6,106,104.8,123.8,82.7,123.9z"></path> <path class="st3" d="M117.4,82.3h-6.9c-1,0-1.7,0.8-1.7,1.7s0.8,1.7,1.7,1.7h6.9c1,0,1.7-0.8,1.7-1.7S118.4,82.3,117.4,82.3z"></path> <path class="st3" d="M82.7,58c1,0,1.7-0.8,1.7-1.7v-6.9c0-1-0.8-1.7-1.7-1.7c-1,0-1.7,0.8-1.7,1.7v6.9C81,57.2,81.8,58,82.7,58z"></path> <path class="st3" d="M82.7,110c-1,0-1.7,0.8-1.7,1.7v6.9c0,1,0.8,1.7,1.7,1.7c1,0,1.7-0.8,1.7-1.7v-6.9 C84.5,110.8,83.7,110,82.7,110z"></path> <linearGradient id="SVGID_7_" gradientUnits="userSpaceOnUse" x1="76.8589" y1="70.184" x2="104.4999" y2="70.184"> <stop offset="0" style="stop-color:#0080EF"></stop> <stop offset="1" style="stop-color:#00D3CA"></stop> </linearGradient> <polygon class="st12" points="88.7,84 76.9,72.2 104.5,56.4 "></polygon> <path class="st3" d="M108.3,58.5c-0.6-0.6-1.4-0.7-2.1-0.3L75.3,75.9c0,0,0,0,0,0c-0.2,0.2-0.4,0.4-0.6,0.6c0,0,0,0,0,0 l-17.7,30.9c-0.4,0.7-0.3,1.5,0.3,2.1c0.6,0.6,1.4,0.7,2.1,0.3l30.9-17.7c0,0,0,0,0,0c0.2-0.2,0.4-0.4,0.6-0.6c0,0,0,0,0,0 l17.7-30.9C108.9,59.9,108.8,59,108.3,58.5z M63.1,103.6l13.4-23.5l10.1,10.1L63.1,103.6z M89,87.8L79,77.8l23.5-13.4L89,87.8z"></path> </g> </g> <g id="rocket" class="st4"> <g class="st5"> <linearGradient id="SVGID_8_" gradientUnits="userSpaceOnUse" x1="84.8244" y1="64.9269" x2="100.6705" y2="64.9269"> <stop offset="0" style="stop-color:#0080EF"></stop> <stop offset="1" style="stop-color:#00D3CA"></stop> </linearGradient> <path class="st13" d="M98.3,70.5c-3.1,3.1-8.1,3.1-11.2,0c-3.1-3.1-3.1-8.1,0-11.2c3.1-3.1,8.1-3.1,11.2,0 C101.4,62.4,101.4,67.4,98.3,70.5z"></path> <linearGradient id="SVGID_9_" gradientUnits="userSpaceOnUse" x1="32.4321" y1="113.9042" x2="58.291" y2="113.9042"> <stop offset="0" style="stop-color:#0080EF"></stop> <stop offset="1" style="stop-color:#00D3CA"></stop> </linearGradient> <path class="st14" d="M53.1,119.4c-4.3,4.3-14.3,6.5-20.6,7.4c0.9-6.3,3.2-16.4,7.4-20.6c2.4-2.4,5.2-4.2,8-5.2l10.5,10.5 C57.3,114.2,55.5,117,53.1,119.4z"></path> <path class="st3" d="M76.1,89.3c-0.4,0-0.8,0.2-1.1,0.5c-0.6,0.6-0.6,1.6,0,2.2c0.6,0.6,1.6,0.6,2.2,0c0.6-0.6,0.6-1.6,0-2.2 C76.9,89.4,76.5,89.3,76.1,89.3z"></path> <path class="st3" d="M98,58.5c-2.7,0-5.3,1-7.4,3c-4.1,4.1-4.1,10.7,0,14.7c4.1,4.1,10.7,4.1,14.7,0c4.1-4.1,4.1-10.7,0-14.7 C103.4,59.5,100.7,58.5,98,58.5z M103.2,74.1c-1.4,1.4-3.3,2.1-5.2,2.1c-1.9,0-3.7-0.7-5.2-2.1c-2.9-2.9-2.9-7.5,0-10.3 c1.4-1.4,3.2-2.1,5.2-2.1c2,0,3.8,0.8,5.2,2.1c1.4,1.4,2.1,3.2,2.1,5.2S104.6,72.7,103.2,74.1z"></path> <g> <linearGradient id="SVGID_10_" gradientUnits="userSpaceOnUse" x1="103.7577" y1="50.4364" x2="129.1873" y2="50.4364"> <stop offset="0" style="stop-color:#0080EF"></stop> <stop offset="1" style="stop-color:#00D3CA"></stop> </linearGradient> <path class="st15" d="M126.8,38c-3.7,0.4-11.2,1.4-19.8,4l-3.2,1l20.2,20.2l1-3.2c2.7-8.6,3.7-16.1,4-19.8l0.2-2.4L126.8,38z"></path> <linearGradient id="SVGID_11_" gradientUnits="userSpaceOnUse" x1="55.2887" y1="99.6565" x2="79.2158" y2="99.6565"> <stop offset="0" style="stop-color:#0080EF"></stop> <stop offset="1" style="stop-color:#00D3CA"></stop> </linearGradient> <path class="st16" d="M58.7,87.7l-0.6,1.4c-1.1,2.9-2.1,5.8-2.8,8.6c-0.3,1,0.1,2.1,0.9,2.9l10.1,10.1c0.6,0.6,1.4,1,2.2,1 c0.2,0,0.4,0,0.7-0.1l0,0c2.8-0.7,5.7-1.7,8.6-2.8l1.4-0.6L58.7,87.7z"></path> <path class="st3" d="M130.9,37.6c0-0.4-0.1-0.8-0.5-1.2c-0.3-0.3-0.7-0.5-1.1-0.5c-0.5,0-12.3,0.5-26.4,5.5 c-11.3,4-20.7,9.7-27.9,16.9c-1.6,1.6-3.2,3.3-4.7,5.1L69.9,64l-0.5-0.3c-7-4.1-12.6-2.8-16-0.9c-8.2,4.4-13.3,16.4-13.3,25 c0,0.6,0.4,1.2,1,1.4c0.6,0.2,1.3,0.1,1.7-0.3c3.6-3.6,7.9-4.2,10.5-4.2c0.8,0,1.4,0.1,1.8,0.1l0.2,0l1.3,1.3l-0.2,0.4 c-1.5,3.6-2.7,7.2-3.6,10.7c-0.3,1.1-0.2,2.3,0.2,3.4l0.2,0.6l-0.6,0.3c-2.1,1-4.1,2.4-5.8,4.1c-5.5,5.5-6.7,19.2-6.7,19.8 c0,0.5,0.1,0.9,0.4,1.2c0.3,0.3,0.8,0.5,1.2,0.4c0.6,0,14.2-1.2,19.8-6.7c1.7-1.7,3.1-3.7,4.1-5.8l0.3-0.6l0.6,0.2 c1.1,0.4,2.3,0.5,3.4,0.2c3.5-0.9,7.1-2.1,10.7-3.6l0.4-0.2l1.3,1.3l0,0.2c0.2,1.7,0.6,7.5-4.1,12.2c-0.3,0.3-0.5,0.7-0.5,1 c0,0.5,0.1,0.9,0.4,1.2c0.3,0.3,0.7,0.5,1.1,0.5c8.6,0,20.6-5.1,25-13.3c1.8-3.4,3.2-9-0.9-16L103,97l0.4-0.4 c1.8-1.5,3.5-3.1,5.1-4.7c7.2-7.2,12.9-16.6,16.9-27.9C130.4,49.9,130.9,38.1,130.9,37.6z M56.3,81.7c-0.2-0.1-5.9-1.3-11.7,1.8 l-1.3,0.7l0.3-1.4C45,76.4,49,68.6,54.9,65.5c3.8-2,8-1.9,12.4,0.6l0.7,0.4L67.5,67c-3.6,4.7-6.7,9.7-9.2,15.1l-0.3,0.7l-0.8-0.5 C57.1,82.1,56.8,81.8,56.3,81.7z M63.2,112c-0.8,2.1-2.1,4.1-3.9,5.9c-3.5,3.5-11.7,5-15.1,5.5l-0.9,0.1l0.1-0.9 c0.5-3.4,2-11.6,5.5-15.1c1.8-1.8,3.8-3.1,5.9-3.9l0.4-0.1l8.1,8.1L63.2,112z M77.7,108.4c-2.9,1.1-5.8,2.1-8.5,2.8l0,0 c-0.2,0-0.4,0.1-0.6,0.1c-0.7,0-1.4-0.3-2-0.9l-10.1-10.1c-0.7-0.7-1-1.7-0.8-2.6c0.7-2.8,1.7-5.6,2.8-8.5l0.4-0.9L78.6,108 L77.7,108.4z M101.5,112.1c-3.1,5.9-11,9.8-17.3,11.1l-1.4,0.3l0.7-1.3c2.1-3.9,2.5-8.9,1.8-11.7c-0.1-0.4-0.4-0.7-0.5-0.8 l-0.1-0.2l-0.4-0.6l0.7-0.3c5.3-2.6,10.4-5.7,15.1-9.2l0.6-0.5l0.4,0.7C103.3,104,103.5,108.2,101.5,112.1z M122,64.3 c-3.8,10.2-9.1,18.8-15.7,25.4v0c-2,2-4.2,4-6.4,5.8c-5.4,4.4-11.4,8.1-17.8,11l-0.4,0.2L60.2,85.2l0.2-0.4 c3-6.4,6.7-12.4,11-17.8c1.8-2.3,3.8-4.4,5.8-6.4c6.6-6.6,15.2-11.9,25.4-15.7l0.4-0.1l19.2,19.2L122,64.3z M123.3,60.6l-17-17 l1.1-0.3c8.5-2.6,15.9-3.6,19.6-4l0.8-0.1l-0.1,0.8c-0.4,3.7-1.3,11.1-4,19.6L123.3,60.6z"></path> </g> <path class="st3" d="M83.5,85.6l3.1-3.1c0.3-0.3,0.5-0.7,0.5-1.1c0-0.4-0.2-0.8-0.5-1.1v0c-0.3-0.3-0.7-0.5-1.1-0.5 c-0.4,0-0.8,0.2-1.1,0.5l-3.1,3.1c-0.3,0.3-0.5,0.7-0.5,1.1s0.2,0.8,0.5,1.1C81.9,86.2,82.9,86.2,83.5,85.6z"></path> </g> </g> <g id="Layer_8" class="st4"> </g> <g id="Layer_9" class="st4"> </g> <g id="Layer_10" class="st4"> </g> <g id="Layer_11" class="st4"> </g> <g id="Layer_2" class="st4"> <g class="st5"> <g> <g> <defs> <path id="SVGID_12_" d="M50.7,31.1c-16.6,11-21,33.4-10,49.9c11,16.6,33.4,21,49.9,10c16.5-11,21-33.4,10-49.9 C93.7,30.7,82.3,25,70.6,25C63.8,25,56.8,27,50.7,31.1"></path> </defs> <clipPath id="SVGID_13_"> <use xlink:href="#SVGID_12_" style="overflow:visible;"></use> </clipPath> <linearGradient id="SVGID_14_" gradientUnits="userSpaceOnUse" x1="-1779.7401" y1="743.7609" x2="-1778.7401" y2="743.7609" gradientTransform="matrix(59.9339 -39.899 -39.899 -59.9339 136383.9219 -26350.6387)"> <stop offset="0" style="stop-color:#4280EC"></stop> <stop offset="1" style="stop-color:#53D3CA"></stop> </linearGradient> <polygon class="st17" points="-5.9,48.7 86.5,-12.8 147.1,78.4 54.8,139.8 "></polygon> </g> </g> </g> <g class="st5"> <g> <g> <defs> <rect id="SVGID_15_" x="-672.1" y="-465.3" width="1920" height="1080"></rect> </defs> <clipPath id="SVGID_16_"> <use xlink:href="#SVGID_15_" style="overflow:visible;"></use> </clipPath> <circle class="st18" cx="81.6" cy="79" r="36"></circle> </g> </g> <g> <g> <defs> <rect id="SVGID_17_" x="-672.1" y="-465.3" width="1920" height="1080"></rect> </defs> <clipPath id="SVGID_18_"> <use xlink:href="#SVGID_17_" style="overflow:visible;"></use> </clipPath> <line class="st19" x1="101.7" y1="110.7" x2="116.7" y2="133.7"></line> </g> </g> <g> <g> <defs> <rect id="SVGID_19_" x="-672.1" y="-465.3" width="1920" height="1080"></rect> </defs> <clipPath id="SVGID_20_"> <use xlink:href="#SVGID_19_" style="overflow:visible;"></use> </clipPath> <path class="st20" d="M70.4,62.1c9.4-6.2,22-3.7,28.2,5.7"></path> </g> </g> </g> </g> </svg> 