<?xml version="1.0" encoding="UTF-8"?> <!-- Generator: Adobe Illustrator 15.0.0, SVG Export Plug-In . SVG Version: 6.00 Build 0) --> <svg xmlns:inkscape="http://www.inkscape.org/namespaces/inkscape" xmlns:sodipodi="http://sodipodi.sourceforge.net/DTD/sodipodi-0.dtd" xmlns:svg="http://www.w3.org/2000/svg" xmlns:rdf="http://www.w3.org/1999/02/22-rdf-syntax-ns#" xmlns:cc="http://creativecommons.org/ns#" xmlns:dc="http://purl.org/dc/elements/1.1/" xmlns="http://www.w3.org/2000/svg" xmlns:xlink="http://www.w3.org/1999/xlink" id="svg2" sodipodi:docname="google-play-badge.svg" inkscape:version="0.91 r13725" x="0px" y="0px" width="529.206px" height="154.979px" viewBox="-196.713 -57.362 529.206 154.979" xml:space="preserve"> <pattern x="-237.642" y="416.51" width="124" height="48" patternUnits="userSpaceOnUse" id="pattern134" viewBox="0 -48 124 48" overflow="visible"> <g> <polygon fill="none" points="0,0 124,0 124,-48 0,-48 "></polygon> <g id="g136_1_"> </g> <g id="g138_1_"> <g> <defs> <rect id="SVGID_1_" y="-48" width="124" height="48"></rect> </defs> <clipPath id="SVGID_2_"> <use xlink:href="#SVGID_1_" overflow="visible"></use> </clipPath> <g id="g140_1_" clip-path="url(#SVGID_2_)"> <g id="g142_1_"> <path id="path144_1_" d="M29.625-20.695l-11.613,6.598c-0.649,0.371-1.231,0.344-1.606,0.008l-0.058,0.062l0.058,0.059 c0.375,0.336,0.957,0.359,1.606-0.012l11.687-6.641L29.625-20.695z"></path> </g> </g> </g> </g> </g> </pattern> <pattern x="-237.642" y="416.51" width="124" height="48" patternUnits="userSpaceOnUse" id="pattern182" viewBox="0 -48 124 48" overflow="visible"> <g> <polygon fill="none" points="0,0 124,0 124,-48 0,-48 "></polygon> <g id="g184_1_"> </g> <g id="g186_1_"> <g> <defs> <rect id="SVGID_3_" y="-48" width="124" height="48"></rect> </defs> <clipPath id="SVGID_4_"> <use xlink:href="#SVGID_3_" overflow="visible"></use> </clipPath> <g id="g188_1_" clip-path="url(#SVGID_4_)"> <g id="g190_1_"> <path id="path192_1_" d="M16.348-14.145c-0.235-0.246-0.371-0.629-0.371-1.125v0.117c0,0.496,0.136,0.879,0.371,1.125 l0.058-0.062L16.348-14.145z"></path> </g> </g> </g> </g> </g> </pattern> <pattern x="-237.642" y="416.51" width="124" height="48" patternUnits="userSpaceOnUse" id="pattern230" viewBox="0 -48 124 48" overflow="visible"> <g> <polygon fill="none" points="0,0 124,0 124,-48 0,-48 "></polygon> <g id="g232_1_"> </g> <g id="g234_1_"> <g> <defs> <rect id="SVGID_5_" y="-48" width="124" height="48"></rect> </defs> <clipPath id="SVGID_6_"> <use xlink:href="#SVGID_5_" overflow="visible"></use> </clipPath> <g id="g236_1_" clip-path="url(#SVGID_6_)"> <g id="g238_1_"> <path id="path240_1_" d="M33.613-22.961l-3.988,2.266l0.074,0.074l3.914-2.223c0.559-0.316,0.836-0.734,0.836-1.156 C34.402-23.621,34.117-23.25,33.613-22.961z"></path> </g> </g> </g> </g> </g> </pattern> <pattern x="-237.642" y="416.51" width="124" height="48" patternUnits="userSpaceOnUse" id="pattern278" viewBox="0 -48 124 48" overflow="visible"> <g> <polygon fill="none" points="0,0 124,0 124,-48 0,-48 "></polygon> <g id="g280_1_"> </g> <g id="g282_1_"> <g> <defs> <rect id="SVGID_7_" y="-48" width="124" height="48"></rect> </defs> <clipPath id="SVGID_8_"> <use xlink:href="#SVGID_7_" overflow="visible"></use> </clipPath> <g id="g284_1_" clip-path="url(#SVGID_8_)"> <g id="g286_1_"> <path id="path288_1_" fill="#FFFFFF" d="M18.012-33.902l15.601,8.863c0.508,0.289,0.789,0.66,0.836,1.039 c0-0.418-0.277-0.836-0.836-1.156L18.012-34.02c-1.117-0.633-2.035-0.105-2.035,1.176v0.113 C15.977-34.008,16.895-34.535,18.012-33.902z"></path> </g> </g> </g> </g> </g> </pattern> <g id="g10" transform="matrix(1.25,0,0,-1.25,-9.4247625,49.85025)" inkscape:groupmode="layer" inkscape:label="google-play-badge"> <g id="g12" transform="matrix(1.0023923,0,0,0.99072975,-0.29664807,0)"> <path id="path14" inkscape:connector-curvature="0" d="M257.535-38.573h-391.07c-8.598,0-15.642,7.043-15.642,15.645v93.856 c0,8.601,7.044,15.644,15.642,15.644h391.07c8.598,0,15.642-7.043,15.642-15.644v-93.856 C273.177-31.529,266.133-38.573,257.535-38.573z"></path> <path id="path16" inkscape:connector-curvature="0" fill="#A6A6A6" d="M257.535,84.066c7.242,0,13.133-5.893,13.133-13.137 v-93.856c0-7.244-5.891-13.137-13.133-13.137h-391.07c-7.242,0-13.133,5.894-13.133,13.137v93.856 c0,7.244,5.891,13.137,13.133,13.137H257.535 M257.535,86.572h-391.07c-8.598,0-15.642-7.043-15.642-15.644v-93.856 c0-8.602,7.044-15.645,15.642-15.645h391.07c8.598,0,15.642,7.043,15.642,15.645v93.856 C273.177,79.529,266.133,86.572,257.535,86.572z"></path> <g id="g18" transform="matrix(1,0,0,-1,0,48)"> <path id="path20" inkscape:connector-curvature="0" fill="#FFFFFF" stroke="#FFFFFF" stroke-width="0.6257" stroke-miterlimit="10" d=" M-0.828-6.523c0,2.612-0.783,4.703-2.323,6.263c-1.774,1.85-4.081,2.782-6.907,2.782c-2.703,0-5.011-0.947-6.903-2.812 c-1.896-1.893-2.844-4.216-2.844-6.994c0-2.782,0.948-5.104,2.844-6.982c1.892-1.881,4.2-2.828,6.903-2.828 c1.344,0,2.627,0.278,3.853,0.796c1.22,0.518,2.213,1.221,2.932,2.09l-1.634,1.65c-1.256-1.483-2.966-2.214-5.151-2.214 c-1.972,0-3.682,0.691-5.133,2.078c-1.436,1.391-2.154,3.195-2.154,5.409c0,2.211,0.719,4.031,2.154,5.421 c1.451,1.376,3.161,2.079,5.133,2.079c2.091,0,3.853-0.703,5.239-2.094c0.915-0.919,1.436-2.186,1.574-3.806h-6.813v-2.257h9.089 C-0.862-7.454-0.828-6.982-0.828-6.523z"></path> </g> <g id="g22" transform="matrix(1,0,0,-1,0,48)"> <path id="path24" inkscape:connector-curvature="0" fill="#FFFFFF" stroke="#FFFFFF" stroke-width="0.6257" stroke-miterlimit="10" d=" M13.588-14.362H5.052v5.946h7.699v2.26H5.052v5.946h8.537v2.303H2.637v-18.756h10.951V-14.362z"></path> </g> <g id="g26" transform="matrix(1,0,0,-1,0,48)"> <path id="path28" inkscape:connector-curvature="0" fill="#FFFFFF" stroke="#FFFFFF" stroke-width="0.6257" stroke-miterlimit="10" d=" M23.765,2.094h-2.417v-16.455h-5.237v-2.301h12.893v2.301h-5.24V2.094z"></path> </g> <g id="g30" transform="matrix(1,0,0,-1,0,48)"> <path id="path32" inkscape:connector-curvature="0" fill="#FFFFFF" stroke="#FFFFFF" stroke-width="0.6257" stroke-miterlimit="10" d=" M38.338,2.094v-18.756h2.411V2.094H38.338z"></path> </g> <g id="g34" transform="matrix(1,0,0,-1,0,48)"> <path id="path36" inkscape:connector-curvature="0" fill="#FFFFFF" stroke="#FFFFFF" stroke-width="0.6257" stroke-miterlimit="10" d=" M51.444,2.094h-2.396v-16.455H43.79v-2.301h12.911v2.301h-5.258V2.094z"></path> </g> <g id="g38" transform="matrix(1,0,0,-1,0,48)"> <path id="path40" inkscape:connector-curvature="0" fill="#FFFFFF" stroke="#FFFFFF" stroke-width="0.6257" stroke-miterlimit="10" d=" M81.112-0.321c-1.849,1.896-4.142,2.843-6.876,2.843c-2.75,0-5.041-0.947-6.891-2.843c-1.844-1.893-2.764-4.216-2.764-6.963 c0-2.751,0.92-5.073,2.764-6.966c1.85-1.896,4.142-2.843,6.891-2.843c2.719,0,5.011,0.947,6.861,2.859 c1.859,1.909,2.779,4.216,2.779,6.951C83.876-4.537,82.956-2.214,81.112-0.321z M69.133-1.894 c1.394,1.406,3.085,2.109,5.103,2.109c2.002,0,3.712-0.703,5.087-2.109c1.39-1.403,2.094-3.207,2.094-5.391 c0-2.186-0.705-3.991-2.094-5.393c-1.375-1.403-3.085-2.109-5.087-2.109c-2.018,0-3.709,0.706-5.103,2.109 c-1.39,1.403-2.093,3.207-2.093,5.393C67.04-5.101,67.744-3.297,69.133-1.894z"></path> </g> <g id="g42" transform="matrix(1,0,0,-1,0,48)"> <path id="path44" inkscape:connector-curvature="0" fill="#FFFFFF" stroke="#FFFFFF" stroke-width="0.6257" stroke-miterlimit="10" d=" M87.266,2.094v-18.756h2.935l9.12,14.587h0.104l-0.104-3.608v-10.978h2.411V2.094h-2.517l-9.549-15.308h-0.107l0.107,3.62V2.094 H87.266z"></path> </g> <path id="path46" inkscape:connector-curvature="0" fill="#FFFFFF" d="M63.986,18.515c-7.349,0-13.35-5.591-13.35-13.306 c0-7.654,6.001-13.303,13.35-13.303c7.364,0,13.368,5.649,13.368,13.303C77.354,12.924,71.349,18.515,63.986,18.515z M63.986-2.855c-4.032,0-7.501,3.328-7.501,8.064c0,4.799,3.469,8.067,7.501,8.067c4.033,0,7.516-3.268,7.516-8.067 C71.502,0.472,68.018-2.855,63.986-2.855z M34.857,18.515c-7.364,0-13.353-5.591-13.353-13.306c0-7.654,5.99-13.303,13.353-13.303 c7.358,0,13.35,5.649,13.35,13.303C48.207,12.924,42.215,18.515,34.857,18.515z M34.857-2.855c-4.036,0-7.516,3.328-7.516,8.064 c0,4.799,3.481,8.067,7.516,8.067c4.033,0,7.501-3.268,7.501-8.067C42.358,0.472,38.889-2.855,34.857-2.855z M0.193,14.439V8.782 h13.502C13.299,5.622,12.244,3.3,10.626,1.68C8.654-0.274,5.585-2.445,0.193-2.445c-8.311,0-14.819,6.707-14.819,15.019 c0,8.31,6.508,15.018,14.819,15.018c4.492,0,7.763-1.758,10.174-4.035l3.987,3.986c-3.377,3.222-7.866,5.699-14.161,5.699 c-11.396,0-20.973-9.273-20.973-20.668c0-11.395,9.577-20.668,20.973-20.668c6.157,0,10.784,2.017,14.423,5.804 c3.725,3.725,4.886,8.967,4.886,13.199c0,1.314-0.11,2.522-0.305,3.531H0.193z M141.94,10.053c-1.1,2.976-4.49,8.461-11.396,8.461 c-6.846,0-12.543-5.389-12.543-13.306c0-7.453,5.639-13.303,13.198-13.303c6.113,0,9.64,3.725,11.091,5.895l-4.536,3.023 c-1.514-2.211-3.575-3.679-6.555-3.679c-2.96,0-5.084,1.356-6.444,4.034l17.797,7.36l-0.616,1.514H141.94z M123.792,5.622 c-0.153,5.132,3.987,7.759,6.949,7.759c2.323,0,4.294-1.159,4.95-2.821L123.792,5.622L123.792,5.622z M109.327-7.287h5.852v39.11 h-5.852V-7.287z M99.747,15.551h-0.198c-1.313,1.558-3.819,2.963-6.995,2.963c-6.663,0-12.755-5.85-12.755-13.349 c0-7.457,6.092-13.26,12.755-13.26c3.176,0,5.682,1.418,6.995,3.022h0.198v-1.908c0-5.089-2.719-7.821-7.102-7.821 c-3.575,0-5.794,2.582-6.708,4.752l-5.087-2.124c1.466-3.528,5.349-7.867,11.795-7.867c6.858,0,12.646,4.033,12.646,13.855v23.893 h-5.545V15.551z M93.054-2.855c-4.032,0-7.406,3.373-7.406,8.021c0,4.69,3.374,8.11,7.406,8.11c3.975,0,7.108-3.419,7.108-8.11 C100.162,0.518,97.028-2.855,93.054-2.855z M169.328,31.823h-13.993v-39.11h5.837V7.531h8.156c6.48,0,12.835,4.69,12.835,12.147 C182.163,27.132,175.793,31.823,169.328,31.823z M169.481,12.971h-8.309v13.412h8.309c4.355,0,6.842-3.618,6.842-6.704 C176.323,16.652,173.836,12.971,169.481,12.971z M205.55,18.592c-4.216,0-8.601-1.863-10.403-5.988l5.179-2.17 c1.112,2.17,3.164,2.874,5.328,2.874c3.029,0,6.099-1.817,6.144-5.029v-0.41c-1.054,0.61-3.316,1.514-6.096,1.514 c-5.577,0-11.259-3.069-11.259-8.799c0-5.242,4.569-8.616,9.702-8.616c3.926,0,6.092,1.773,7.455,3.832h0.198v-3.022h5.636v15 C217.433,14.714,212.255,18.592,205.55,18.592z M204.845-2.84c-1.908,0-4.569,0.946-4.569,3.312c0,3.028,3.316,4.187,6.188,4.187 c2.57,0,3.773-0.565,5.333-1.314C211.341-0.274,208.223-2.84,204.845-2.84z M237.965,17.735L231.259,0.78h-0.201l-6.934,16.956 h-6.29L228.25-5.958l-5.944-13.18h6.096l16.054,36.873H237.965z M185.369-7.287h5.852v39.11h-5.852V-7.287z"></path> <g id="g48"> <linearGradient id="path64_1_" gradientUnits="userSpaceOnUse" x1="-73.4225" y1="184.5092" x2="-139.05" y2="118.8817" gradientTransform="matrix(1.0024 0 0 -0.9907 -7.3826 171.4758)"> <stop offset="0" style="stop-color:#00A0FF"></stop> <stop offset="0.0066" style="stop-color:#00A1FF"></stop> <stop offset="0.2601" style="stop-color:#00BEFF"></stop> <stop offset="0.5122" style="stop-color:#00D2FF"></stop> <stop offset="0.7604" style="stop-color:#00DFFF"></stop> <stop offset="1" style="stop-color:#00E3FF"></stop> </linearGradient> <path id="path64" inkscape:connector-curvature="0" fill="url(#path64_1_)" d="M-116.53,62.985 c-0.918-0.962-1.451-2.458-1.451-4.397v-69.189c0-1.94,0.533-3.438,1.451-4.4l0.228-0.21l38.769,38.755v0.916l-38.769,38.755 L-116.53,62.985z"></path> </g> <g id="g66"> <linearGradient id="path78_1_" gradientUnits="userSpaceOnUse" x1="-35.8541" y1="148.8556" x2="-130.476" y2="148.8556" gradientTransform="matrix(1.0024 0 0 -0.9907 -7.3826 171.4758)"> <stop offset="0" style="stop-color:#FFE000"></stop> <stop offset="0.4087" style="stop-color:#FFBD00"></stop> <stop offset="0.7754" style="stop-color:#FFA500"></stop> <stop offset="1" style="stop-color:#FF9C00"></stop> </linearGradient> <path id="path78" inkscape:connector-curvature="0" fill="url(#path78_1_)" d="M-64.624,10.618l-12.909,12.924v0.916 l12.924,12.925l0.289-0.17l15.307-8.709c4.368-2.47,4.368-6.539,0-9.026l-15.307-8.695L-64.624,10.618z"></path> </g> <g id="g80"> <linearGradient id="path88_1_" gradientUnits="userSpaceOnUse" x1="-90.0109" y1="167.9585" x2="-179.0053" y2="78.9641" gradientTransform="matrix(1.0024 0 0 -0.9907 -7.3826 171.4758)"> <stop offset="0" style="stop-color:#FF3A44"></stop> <stop offset="1" style="stop-color:#C31162"></stop> </linearGradient> <path id="path88" inkscape:connector-curvature="0" fill="url(#path88_1_)" d="M-64.32,10.783l-13.213,13.215l-38.997-39.001 c1.45-1.523,3.816-1.708,6.507-0.181L-64.32,10.783"></path> </g> <g id="g90"> <linearGradient id="path104_1_" gradientUnits="userSpaceOnUse" x1="-144.7218" y1="185.1179" x2="-104.9766" y2="145.373" gradientTransform="matrix(1.0024 0 0 -0.9907 -7.3826 171.4758)"> <stop offset="0" style="stop-color:#32A071"></stop> <stop offset="0.0685" style="stop-color:#2DA771"></stop> <stop offset="0.4762" style="stop-color:#15CF74"></stop> <stop offset="0.8009" style="stop-color:#06E775"></stop> <stop offset="1" style="stop-color:#00F076"></stop> </linearGradient> <path id="path104" inkscape:connector-curvature="0" fill="url(#path104_1_)" d="M-64.32,37.213l-45.703,25.972 c-2.691,1.511-5.057,1.326-6.507-0.2l38.997-38.986L-64.32,37.213z"></path> </g> <g id="g106"> <g id="g108"> </g> <defs> <filter id="Adobe_OpacityMaskFilter" x="-180.461" y="-117.858" width="484.922" height="187.716"> <feColorMatrix type="matrix" values="1 0 0 0 0 0 1 0 0 0 0 0 1 0 0 0 0 0 1 0"></feColorMatrix> </filter> </defs> <mask maskUnits="userSpaceOnUse" x="-180.461" y="-117.858" width="484.922" height="187.716" id="mask114"> <g id="g116" filter="url(#Adobe_OpacityMaskFilter)"> <g> <defs> <rect id="SVGID_9_" x="-198.846" y="-82.082" width="484.924" height="187.713"></rect> </defs> <clipPath id="SVGID_10_"> <use xlink:href="#SVGID_9_" overflow="visible"></use> </clipPath> <g id="g118"> <path id="path120" inkscape:connector-curvature="0" clip-path="url(#SVGID_10_)" fill-opacity="0.2" d="M-149.89,87.562 h387.013V-64.013H-149.89V87.562z"></path> </g> </g> </g> </mask> <g id="g122" mask="url(#mask114)"> <g id="g124"> </g> <g id="g146"> <g> <defs> <rect id="SVGID_11_" x="-241.801" y="-92.235" width="607.603" height="232.469"></rect> </defs> <clipPath id="SVGID_12_"> <use xlink:href="#SVGID_11_" overflow="visible"></use> </clipPath> <g id="g148" clip-path="url(#SVGID_12_)"> <g id="g150"> <pattern id="path152_1_" xlink:href="#pattern134" patternTransform="matrix(4.9 0 0 -4.843 30733.2266 -49246.9883)"> </pattern> <path id="path152" inkscape:connector-curvature="0" fill="url(#path152_1_)" d="M-180.461-69.858h484.922v187.716h-484.922 V-69.858z"></path> </g> </g> </g> </g> </g> </g> <g id="g154"> <g id="g156"> </g> <defs> <filter id="Adobe_OpacityMaskFilter_1_" x="-180.461" y="-117.858" width="484.922" height="187.716"> <feColorMatrix type="matrix" values="1 0 0 0 0 0 1 0 0 0 0 0 1 0 0 0 0 0 1 0"></feColorMatrix> </filter> </defs> <mask maskUnits="userSpaceOnUse" x="-180.461" y="-117.858" width="484.922" height="187.716" id="mask162"> <g id="g164" filter="url(#Adobe_OpacityMaskFilter_1_)"> <g> <defs> <rect id="SVGID_13_" x="-198.846" y="-82.082" width="484.924" height="187.713"></rect> </defs> <clipPath id="SVGID_14_"> <use xlink:href="#SVGID_13_" overflow="visible"></use> </clipPath> <g id="g166"> <path id="path168" inkscape:connector-curvature="0" clip-path="url(#SVGID_14_)" fill-opacity="0.12" d="M-149.89,87.562 h387.013V-64.013H-149.89V87.562z"></path> </g> </g> </g> </mask> <g id="g170" mask="url(#mask162)"> <g id="g172"> </g> <g id="g194"> <g> <defs> <rect id="SVGID_15_" x="-241.801" y="-92.235" width="607.603" height="232.469"></rect> </defs> <clipPath id="SVGID_16_"> <use xlink:href="#SVGID_15_" overflow="visible"></use> </clipPath> <g id="g196" clip-path="url(#SVGID_16_)"> <g id="g198"> <pattern id="path200_1_" xlink:href="#pattern182" patternTransform="matrix(4.9 0 0 -4.843 30733.2266 -49246.9883)"> </pattern> <path id="path200" inkscape:connector-curvature="0" fill="url(#path200_1_)" d="M-180.461-69.858h484.922v187.716h-484.922 V-69.858z"></path> </g> </g> </g> </g> </g> </g> <g id="g202"> <g id="g204"> </g> <defs> <filter id="Adobe_OpacityMaskFilter_2_" x="-180.461" y="-117.858" width="484.922" height="187.716"> <feColorMatrix type="matrix" values="1 0 0 0 0 0 1 0 0 0 0 0 1 0 0 0 0 0 1 0"></feColorMatrix> </filter> </defs> <mask maskUnits="userSpaceOnUse" x="-180.461" y="-117.858" width="484.922" height="187.716" id="mask210"> <g id="g212" filter="url(#Adobe_OpacityMaskFilter_2_)"> <g> <defs> <rect id="SVGID_17_" x="-198.846" y="-82.082" width="484.924" height="187.713"></rect> </defs> <clipPath id="SVGID_18_"> <use xlink:href="#SVGID_17_" overflow="visible"></use> </clipPath> <g id="g214"> <path id="path216" inkscape:connector-curvature="0" clip-path="url(#SVGID_18_)" fill-opacity="0.12" d="M-149.89,87.562 h387.013V-64.013H-149.89V87.562z"></path> </g> </g> </g> </mask> <g id="g218" mask="url(#mask210)"> <g id="g220"> </g> <g id="g242"> <g> <defs> <rect id="SVGID_19_" x="-241.801" y="-92.235" width="607.603" height="232.469"></rect> </defs> <clipPath id="SVGID_20_"> <use xlink:href="#SVGID_19_" overflow="visible"></use> </clipPath> <g id="g244" clip-path="url(#SVGID_20_)"> <g id="g246"> <pattern id="path248_1_" xlink:href="#pattern230" patternTransform="matrix(4.9 0 0 -4.843 30733.2266 -49246.9883)"> </pattern> <path id="path248" inkscape:connector-curvature="0" fill="url(#path248_1_)" d="M-180.461-69.858h484.922v187.716h-484.922 V-69.858z"></path> </g> </g> </g> </g> </g> </g> <g id="g250"> <g id="g252"> </g> <defs> <filter id="Adobe_OpacityMaskFilter_3_" x="-180.461" y="-117.858" width="484.922" height="187.716"> <feColorMatrix type="matrix" values="1 0 0 0 0 0 1 0 0 0 0 0 1 0 0 0 0 0 1 0"></feColorMatrix> </filter> </defs> <mask maskUnits="userSpaceOnUse" x="-180.461" y="-117.858" width="484.922" height="187.716" id="mask258"> <g id="g260" filter="url(#Adobe_OpacityMaskFilter_3_)"> <g> <defs> <rect id="SVGID_21_" x="-198.846" y="-82.082" width="484.924" height="187.713"></rect> </defs> <clipPath id="SVGID_22_"> <use xlink:href="#SVGID_21_" overflow="visible"></use> </clipPath> <g id="g262"> <path id="path264" inkscape:connector-curvature="0" clip-path="url(#SVGID_22_)" fill-opacity="0.25" d="M-149.89,87.562 h387.013V-64.013H-149.89V87.562z"></path> </g> </g> </g> </mask> <g id="g266" mask="url(#mask258)"> <g id="g268"> </g> <g id="g290"> <g> <defs> <rect id="SVGID_23_" x="-241.801" y="-92.235" width="607.603" height="232.469"></rect> </defs> <clipPath id="SVGID_24_"> <use xlink:href="#SVGID_23_" overflow="visible"></use> </clipPath> <g id="g292" clip-path="url(#SVGID_24_)"> <g id="g294"> <pattern id="path296_1_" xlink:href="#pattern278" patternTransform="matrix(4.9 0 0 -4.843 30733.2266 -49246.9883)"> </pattern> <path id="path296" inkscape:connector-curvature="0" fill="url(#path296_1_)" d="M-180.461-69.858h484.922v187.716h-484.922 V-69.858z"></path> </g> </g> </g> </g> </g> </g> </g> </g> </svg> 